<svg width="75" height="32" viewBox="0 0 75 32" fill="none" xmlns="http://www.w3.org/2000/svg">
<path d="M1.8347 26H5.52504V19.8125H8.21823L11.525 26H15.5989L11.8915 19.2159C13.8773 18.3636 14.9767 16.6335 14.9767 14.2472C14.9767 10.7784 12.6841 8.54545 8.72107 8.54545H1.8347V26ZM5.52504 16.8466V11.5625H8.01368C10.1444 11.5625 11.1756 12.5085 11.1756 14.2472C11.1756 15.9773 10.1444 16.8466 8.03073 16.8466H5.52504ZM33.1445 17.2727C33.1445 11.5625 29.599 8.30682 24.9712 8.30682C20.3178 8.30682 16.7979 11.5625 16.7979 17.2727C16.7979 22.9574 20.3178 26.2386 24.9712 26.2386C29.599 26.2386 33.1445 22.983 33.1445 17.2727ZM29.403 17.2727C29.403 20.9716 27.6473 22.9744 24.9712 22.9744C22.2865 22.9744 20.5394 20.9716 20.5394 17.2727C20.5394 13.5739 22.2865 11.571 24.9712 11.571C27.6473 11.571 29.403 13.5739 29.403 17.2727ZM44.8669 13.5653H48.4038C48.3527 10.4545 45.7959 8.30682 41.9095 8.30682C38.0828 8.30682 35.2788 10.4205 35.2959 13.5909C35.2873 16.1648 37.1027 17.6392 40.0516 18.3466L41.9521 18.8239C43.8527 19.2841 44.9095 19.8295 44.918 21.0057C44.9095 22.2841 43.6993 23.1534 41.8243 23.1534C39.9067 23.1534 38.526 22.267 38.4067 20.5199H34.8356C34.9294 24.2955 37.6311 26.2472 41.8669 26.2472C46.1283 26.2472 48.6339 24.2102 48.6425 21.0142C48.6339 18.108 46.4436 16.5653 43.4095 15.8835L41.8413 15.5085C40.3243 15.1591 39.0544 14.5966 39.08 13.3438C39.08 12.2188 40.0771 11.392 41.8839 11.392C43.6481 11.392 44.7305 12.1932 44.8669 13.5653ZM53.2548 26L54.5502 22.0199H60.8485L62.144 26H66.0985L60.0815 8.54545H55.3258L49.3002 26H53.2548ZM55.4877 19.1392L57.6355 12.5341H57.7718L59.9196 19.1392H55.4877Z" fill="black"/>
<path d="M74.7273 23H63.2642V25.7528H74.7273V23Z" fill="black"/>
<line x1="66" y1="25.5" x2="75" y2="25.5" stroke="black"/>
<line x1="66" y1="23.5" x2="75" y2="23.5" stroke="black"/>
<line x1="66" y1="24.5" x2="75" y2="24.5" stroke="black"/>
</svg>
